<svg width="889" height="75" viewBox="0 0 889 75" fill="none" xmlns="http://www.w3.org/2000/svg">
<g clip-path="url(#clip0_1_35)">
<path opacity="0.995" fill-rule="evenodd" clip-rule="evenodd" d="M27.5 0.499994C34.292 -0.333006 40.625 0.833994 46.5 3.99999C49.966 7.75799 50.466 11.925 48 16.5C47.632 17.91 46.799 18.91 45.5 19.5C33.362 13.078 23.195 15.745 15 27.5C12.47 36.864 14.97 44.698 22.5 51C27.963 51.754 33.296 51.254 38.5 49.5C38.5 48.167 38.5 46.833 38.5 45.5C33.353 45.189 29.687 42.689 27.5 38C27.957 37.586 28.291 37.086 28.5 36.5C34.384 34.74 40.384 33.407 46.5 32.5C49.211 33.014 51.711 34.014 54 35.5C53.292 41.162 53.459 46.828 54.5 52.5C55.031 60.394 52.531 67.061 47 72.5C44.622 70.291 42.455 67.958 40.5 65.5C25.304 70.831 13.804 66.497 6.00003 52.5C-4.35397 34.971 -2.18797 19.138 12.5 4.99999C17.478 3.07199 22.478 1.57199 27.5 0.499994Z" fill="black"/>
<path fill-rule="evenodd" clip-rule="evenodd" d="M88.5 0.499999C93.487 -0.651001 96.987 1.016 99 5.5C102.071 19.12 106.071 32.453 111 45.5C112.576 52.437 113.243 59.437 113 66.5C112.334 70.894 110.001 72.228 106 70.5C104.392 67.618 103.059 64.618 102 61.5C101.439 60.978 100.772 60.645 100 60.5C91.346 63.048 82.679 63.048 74 60.5C71.074 64.106 68.074 67.773 65 71.5C63.302 70.471 62.468 68.971 62.5 67C69.367 44.104 78.034 21.938 88.5 0.499999ZM87.5 28.5C88.75 28.577 89.583 29.244 90 30.5C91.346 35.552 92.846 40.552 94.5 45.5C89.163 46.673 83.829 47.506 78.5 48C82.177 41.813 85.177 35.313 87.5 28.5Z" fill="black"/>
<path opacity="0.993" fill-rule="evenodd" clip-rule="evenodd" d="M463.5 0.499999C469.192 -0.740001 473.026 1.26 475 6.5C477.313 15.709 478.979 25.042 480 34.5C482.553 26.176 485.886 18.176 490 10.5C490.333 8.167 490.667 5.833 491 3.5C494.922 1.688 499.089 1.021 503.5 1.5C506.635 16.045 509.135 30.712 511 45.5C512.275 47.717 513.275 50.051 514 52.5C514.217 57.553 514.717 62.553 515.5 67.5C509.888 77.01 505.055 76.676 501 66.5C497.946 56.871 495.279 47.204 493 37.5C488.692 48.783 483.358 59.45 477 69.5C474.994 71.002 473.328 70.669 472 68.5C468.544 59.438 466.044 50.104 464.5 40.5C459.994 50.67 455.66 60.837 451.5 71C444.451 72.266 440.618 69.433 440 62.5C441.99 57.187 444.99 52.52 449 48.5C451.316 36.55 454.65 24.884 459 13.5C459.333 9.833 459.667 6.167 460 2.5C461.302 1.915 462.469 1.249 463.5 0.499999Z" fill="black"/>
<path opacity="0.893" fill-rule="evenodd" clip-rule="evenodd" d="M860.5 0.5C869 0.608 877.33 0.774 885.5 1C887.29 5.827 887.46 10.66 886 15.5C885.48 16.516 884.65 17.182 883.5 17.5C874.46 17.699 865.46 17.699 856.5 17.5C855.51 21.107 855.18 24.774 855.5 28.5C865.51 28.501 875.51 28.834 885.5 29.5C885.5 35.167 885.5 40.833 885.5 46.5C883 46.749 880.5 47.083 878 47.5C869.89 46.224 861.89 45.557 854 45.5C853.06 48.815 852.23 52.148 851.5 55.5C863.84 56.678 876.17 56.678 888.5 55.5C888.49 60.926 887.82 66.26 886.5 71.5C873.82 71.959 861.16 72.292 848.5 72.5C846.6 71.935 844.93 70.935 843.5 69.5C841.08 65.504 839.75 61.171 839.5 56.5C842.18 44.424 842.85 32.257 841.5 20C842.4 14.521 843.07 9.021 843.5 3.5C849.36 2.899 855.03 1.899 860.5 0.5Z" fill="black"/>
<path fill-rule="evenodd" clip-rule="evenodd" d="M135.5 1.49999C141.909 1.18299 148.243 1.68299 154.5 2.99999C159.787 6.09599 162.62 10.596 163 16.5C159.834 17.361 157 16.528 154.5 14C149.167 13.333 143.833 13.333 138.5 14C132.162 17.386 131.829 21.386 137.5 26C143.691 28.172 150.024 29.839 156.5 31C164.684 33.692 168.35 39.359 167.5 48C166.488 62.843 158.488 70.343 143.5 70.5C134.105 69.598 127.772 64.764 124.5 56C125.275 53.232 127.108 52.066 130 52.5C133.644 53.57 137.144 55.07 140.5 57C148.167 58.732 153.167 55.899 155.5 48.5C155.24 46.813 154.573 45.313 153.5 44C146.225 42.433 139.225 40.099 132.5 37C118.184 23.461 119.184 11.627 135.5 1.49999Z" fill="black"/>
<path opacity="0.984" fill-rule="evenodd" clip-rule="evenodd" d="M652.5 1.49999C656.106 1.21099 659.606 1.54399 663 2.49999C663.602 8.39099 662.435 13.891 659.5 19C655.056 19.25 652.222 17.084 651 12.5C650.421 10.351 649.921 8.18499 649.5 5.99999C649.557 3.79099 650.557 2.29099 652.5 1.49999Z" fill="black"/>
<path fill-rule="evenodd" clip-rule="evenodd" d="M189.5 2.50001C198.438 1.93501 207.105 3.435 215.5 7C225.298 13.732 227.798 22.565 223 33.5C217.58 43.984 209.08 50.818 197.5 54C193.812 54.45 190.146 54.283 186.5 53.5C186.498 59.35 185.164 64.85 182.5 70C181.216 70.684 180.049 70.517 179 69.5C175.115 51.276 174.615 32.943 177.5 14.5C177.428 12.44 177.095 10.44 176.5 8.5C176.865 7.098 177.699 6.098 179 5.50001C182.586 4.334 186.086 3.334 189.5 2.50001ZM189.5 16.5C195.715 17.07 201.715 18.57 207.5 21C209.019 22.351 210.352 23.851 211.5 25.5C207.045 34.61 199.712 39.277 189.5 39.5C189.653 31.713 189.653 24.046 189.5 16.5Z" fill="black"/>
<path opacity="0.993" fill-rule="evenodd" clip-rule="evenodd" d="M748.5 2.5C759.84 2.156 771 3.156 782 5.5C782.8 9.107 781.96 12.274 779.5 15C773.6 17.023 767.6 18.523 761.5 19.5C762.85 25.58 763.51 31.747 763.5 38C762.5 46.849 762.33 55.682 763 64.5C760.17 71.045 755.34 73.212 748.5 71C747.15 69.426 746.49 67.593 746.5 65.5C750.91 50.87 752.57 35.87 751.5 20.5C741.98 21.746 735.64 17.913 732.5 9C732.76 7.739 733.43 6.739 734.5 6C739.22 4.506 743.89 3.339 748.5 2.5Z" fill="black"/>
<path opacity="0.991" fill-rule="evenodd" clip-rule="evenodd" d="M794.5 2.49999C806.17 2.33299 817.84 2.49999 829.5 2.99999C837.5 3.40399 839.5 7.23699 835.5 14.5C829.23 15.761 822.89 16.427 816.5 16.5C817.82 31.842 817.66 47.175 816 62.5C814.89 66.508 813.39 70.341 811.5 74C803.95 75.795 799.61 72.795 798.5 65C800.35 61.779 801.52 58.279 802 54.5C802.81 46.178 803.48 37.845 804 29.5C804.3 26.026 805.13 22.692 806.5 19.5C801.08 18.518 795.91 16.851 791 14.5C789.83 12.167 788.67 9.83299 787.5 7.49999C789.03 4.57999 791.36 2.91399 794.5 2.49999Z" fill="black"/>
<path fill-rule="evenodd" clip-rule="evenodd" d="M349.5 3.50001C362.512 2.08901 374.512 4.75601 385.5 11.5C399.426 32.079 397.426 50.912 379.5 68C370.216 73.254 360.549 74.254 350.5 71C349.299 70.097 348.465 68.931 348 67.5C347.142 60.284 346.308 53.117 345.5 46C346.321 35.243 346.821 24.41 347 13.5C347.903 12.299 349.069 11.465 350.5 11C348.285 8.75801 347.952 6.25801 349.5 3.50001ZM358.5 17.5C364.691 20.287 371.024 22.787 377.5 25C384.481 36.791 382.481 47.124 371.5 56C369.884 56.615 368.551 57.615 367.5 59C364.15 59.25 360.983 60.083 358 61.5C357.5 61 357 60.5 356.5 60C357.624 54.101 358.29 48.101 358.5 42C357.292 33.834 357.292 25.667 358.5 17.5Z" fill="black"/>
<path fill-rule="evenodd" clip-rule="evenodd" d="M602.5 3.50001C609.881 3.31401 617.214 3.81401 624.5 5.00001C636.408 11.111 639.908 20.611 635 33.5C632.559 39.608 628.392 44.108 622.5 47C626.633 50.131 630.466 53.631 634 57.5C635.076 62.601 633.91 67.101 630.5 71C626.835 71.387 624.002 69.887 622 66.5C618.735 60.959 615.235 55.626 611.5 50.5C607.833 51.833 604.167 51.833 600.5 50.5C598.918 56.403 597.751 62.403 597 68.5C595.667 71.167 594.333 71.167 593 68.5C590.583 59.925 589.75 51.259 590.5 42.5C589.226 34.219 588.226 25.886 587.5 17.5C587.406 15.088 588.406 13.255 590.5 12C589.643 11.311 588.977 10.478 588.5 9.50001C589.924 7.28201 591.924 5.78201 594.5 5.00001C597.365 4.81701 600.031 4.31701 602.5 3.50001ZM600.5 16.5C606.849 16.735 613.183 17.235 619.5 18C623 18.498 624.667 20.498 624.5 24C623.568 30.265 619.902 33.932 613.5 35C609.179 35.499 604.846 35.666 600.5 35.5C599.464 29.13 599.464 22.797 600.5 16.5Z" fill="black"/>
<path fill-rule="evenodd" clip-rule="evenodd" d="M251.5 4.5C255.111 4.639 257.777 6.306 259.5 9.5C261.333 13.167 263.167 16.833 265 20.5C269.66 35.486 275.16 50.152 281.5 64.5C280.787 68.683 278.787 72.016 275.5 74.5C273.851 73.352 272.351 72.019 271 70.5C268.736 66.296 266.236 62.296 263.5 58.5C260.89 59.116 258.223 59.449 255.5 59.5C249.128 58.91 242.794 58.41 236.5 58C234.436 62.888 231.436 67.055 227.5 70.5C226.914 70.291 226.414 69.957 226 69.5C225.333 67.5 225.333 65.5 226 63.5C233 44.833 240 26.167 247 7.5C248.409 6.219 249.909 5.219 251.5 4.5ZM250.5 28.5C253.081 33.349 255.414 38.515 257.5 44C252.563 45.435 247.563 46.102 242.5 46C245.459 40.286 248.125 34.453 250.5 28.5Z" fill="black"/>
<path fill-rule="evenodd" clip-rule="evenodd" d="M302.5 4.50001C309.881 4.31401 317.214 4.81401 324.5 6.00001C336.408 12.111 339.908 21.611 335 34.5C332.559 40.608 328.392 45.108 322.5 48C326.633 51.131 330.466 54.631 334 58.5C335.076 63.601 333.91 68.101 330.5 72C326.835 72.387 324.002 70.887 322 67.5C318.735 61.959 315.235 56.626 311.5 51.5C307.833 52.833 304.167 52.833 300.5 51.5C298.918 57.403 297.751 63.403 297 69.5C295.667 72.167 294.333 72.167 293 69.5C290.583 60.925 289.75 52.259 290.5 43.5C289.226 35.219 288.226 26.886 287.5 18.5C287.406 16.088 288.406 14.255 290.5 13C289.643 12.311 288.977 11.478 288.5 10.5C289.924 8.28201 291.924 6.78201 294.5 6.00001C297.365 5.81701 300.031 5.31701 302.5 4.50001ZM300.5 17.5C306.849 17.735 313.183 18.235 319.5 19C323 19.498 324.667 21.498 324.5 25C323.568 31.265 319.902 34.932 313.5 36C309.179 36.499 304.846 36.666 300.5 36.5C299.464 30.13 299.464 23.797 300.5 17.5Z" fill="black"/>
<path fill-rule="evenodd" clip-rule="evenodd" d="M549.5 4.5C553.111 4.639 555.777 6.306 557.5 9.5C559.333 13.167 561.167 16.833 563 20.5C567.66 35.486 573.16 50.152 579.5 64.5C578.787 68.683 576.787 72.016 573.5 74.5C571.851 73.352 570.351 72.019 569 70.5C566.736 66.296 564.236 62.296 561.5 58.5C558.89 59.116 556.223 59.449 553.5 59.5C547.128 58.91 540.794 58.41 534.5 58C532.46 61.914 530.293 65.748 528 69.5C526.667 70.833 525.333 70.833 524 69.5C523.333 67.5 523.333 65.5 524 63.5C531 44.833 538 26.167 545 7.5C546.409 6.219 547.909 5.219 549.5 4.5ZM548.5 28.5C551.081 33.349 553.414 38.515 555.5 44C550.563 45.435 545.563 46.102 540.5 46C543.459 40.286 546.125 34.453 548.5 28.5Z" fill="black"/>
<path fill-rule="evenodd" clip-rule="evenodd" d="M701.5 5.5C719.04 3.58 729.04 11.247 731.5 28.5C731.08 41.827 726.41 53.327 717.5 63C701.11 69.869 688.274 65.703 679 50.5C669.55 35.091 672.05 22.258 686.5 12C691.918 10.508 696.918 8.341 701.5 5.5ZM699.5 18.5C716.22 17.917 721.72 25.583 716 41.5C711.88 51.81 704.72 54.81 694.5 50.5C683.665 37.61 685.332 26.944 699.5 18.5Z" fill="black"/>
<path opacity="0.975" fill-rule="evenodd" clip-rule="evenodd" d="M654.5 21.5C657.187 21.336 659.854 21.503 662.5 22C663.624 22.839 664.291 24.006 664.5 25.5C662.572 38.496 662.239 51.496 663.5 64.5C662.811 66.444 662.311 68.444 662 70.5C655.799 74.535 651.633 72.701 649.5 65C648.911 53.141 649.578 41.308 651.5 29.5C649.734 25.709 650.734 23.043 654.5 21.5Z" fill="black"/>
</g>
<defs>
<clipPath id="clip0_1_35">
<rect width="889" height="75" fill="white"/>
</clipPath>
</defs>
</svg>
